<mxfile host="65bd71144e" pages="4">
    <diagram id="uQKjPZVIyK9XIpIBq_tp" name="Page-1">
        <mxGraphModel dx="1212" dy="1015" grid="1" gridSize="10" guides="1" tooltips="1" connect="1" arrows="1" fold="1" page="1" pageScale="1" pageWidth="850" pageHeight="1100" math="0" shadow="0">
            <root>
                <mxCell id="0"/>
                <mxCell id="1" parent="0"/>
                <mxCell id="zwlp0CFXfFTOkiT8KIqe-1" value="http://node2/conversions/v1/convert/c-to-f/15" style="text;html=1;strokeColor=none;fillColor=none;align=center;verticalAlign=middle;whiteSpace=wrap;rounded=0;fontSize=24;" parent="1" vertex="1">
                    <mxGeometry x="890" y="590" width="640" height="20" as="geometry"/>
                </mxCell>
                <mxCell id="zwlp0CFXfFTOkiT8KIqe-2" value="" style="shape=curlyBracket;whiteSpace=wrap;html=1;rounded=1;flipH=1;fontSize=24;rotation=-90;" parent="1" vertex="1">
                    <mxGeometry x="1054" y="520" width="20" height="70" as="geometry"/>
                </mxCell>
                <mxCell id="zwlp0CFXfFTOkiT8KIqe-4" value="" style="shape=curlyBracket;whiteSpace=wrap;html=1;rounded=1;flipH=1;fontSize=24;rotation=-90;" parent="1" vertex="1">
                    <mxGeometry x="1181.58" y="472.17" width="20" height="165.63" as="geometry"/>
                </mxCell>
                <mxCell id="zwlp0CFXfFTOkiT8KIqe-5" value="" style="shape=curlyBracket;whiteSpace=wrap;html=1;rounded=1;flipH=1;fontSize=24;rotation=-90;" parent="1" vertex="1">
                    <mxGeometry x="1349.88" y="471.87" width="20" height="166.25" as="geometry"/>
                </mxCell>
                <mxCell id="zwlp0CFXfFTOkiT8KIqe-6" value="Kubernetes Node Host" style="text;html=1;strokeColor=none;fillColor=none;align=center;verticalAlign=middle;whiteSpace=wrap;rounded=0;fontSize=12;rotation=-45;" parent="1" vertex="1">
                    <mxGeometry x="1040.82" y="483.18" width="130" height="20" as="geometry"/>
                </mxCell>
                <mxCell id="zwlp0CFXfFTOkiT8KIqe-8" value="Controller Base Path" style="text;html=1;strokeColor=none;fillColor=none;align=center;verticalAlign=middle;whiteSpace=wrap;rounded=0;fontSize=12;rotation=-45;" parent="1" vertex="1">
                    <mxGeometry x="1170" y="484.99" width="120" height="20" as="geometry"/>
                </mxCell>
                <mxCell id="zwlp0CFXfFTOkiT8KIqe-9" value="Controller Method Path" style="text;html=1;strokeColor=none;fillColor=none;align=center;verticalAlign=middle;whiteSpace=wrap;rounded=0;fontSize=12;rotation=-45;" parent="1" vertex="1">
                    <mxGeometry x="1333" y="484.98999999999995" width="140" height="20" as="geometry"/>
                </mxCell>
            </root>
        </mxGraphModel>
    </diagram>
    <diagram id="JtQhP0aFkPiLQbx6p3fQ" name="Page-2">
        <mxGraphModel dx="2062" dy="1015" grid="1" gridSize="10" guides="1" tooltips="1" connect="1" arrows="1" fold="1" page="1" pageScale="1" pageWidth="850" pageHeight="1100" math="0" shadow="0">
            <root>
                <mxCell id="2tDmGTxHB2ePJQkc9rIG-0"/>
                <mxCell id="2tDmGTxHB2ePJQkc9rIG-1" parent="2tDmGTxHB2ePJQkc9rIG-0"/>
                <mxCell id="2tDmGTxHB2ePJQkc9rIG-7" style="edgeStyle=orthogonalEdgeStyle;rounded=0;orthogonalLoop=1;jettySize=auto;html=1;entryX=0;entryY=0.5;entryDx=0;entryDy=0;fontSize=12;" parent="2tDmGTxHB2ePJQkc9rIG-1" source="2tDmGTxHB2ePJQkc9rIG-2" target="2tDmGTxHB2ePJQkc9rIG-5" edge="1">
                    <mxGeometry relative="1" as="geometry"/>
                </mxCell>
                <mxCell id="2tDmGTxHB2ePJQkc9rIG-8" style="edgeStyle=orthogonalEdgeStyle;rounded=0;orthogonalLoop=1;jettySize=auto;html=1;entryX=0;entryY=0.5;entryDx=0;entryDy=0;fontSize=12;" parent="2tDmGTxHB2ePJQkc9rIG-1" source="2tDmGTxHB2ePJQkc9rIG-2" target="2tDmGTxHB2ePJQkc9rIG-4" edge="1">
                    <mxGeometry relative="1" as="geometry"/>
                </mxCell>
                <mxCell id="2tDmGTxHB2ePJQkc9rIG-9" style="edgeStyle=orthogonalEdgeStyle;rounded=0;orthogonalLoop=1;jettySize=auto;html=1;entryX=0;entryY=0.5;entryDx=0;entryDy=0;fontSize=12;" parent="2tDmGTxHB2ePJQkc9rIG-1" source="2tDmGTxHB2ePJQkc9rIG-2" target="2tDmGTxHB2ePJQkc9rIG-6" edge="1">
                    <mxGeometry relative="1" as="geometry"/>
                </mxCell>
                <mxCell id="2tDmGTxHB2ePJQkc9rIG-2" value="Load&lt;br&gt;Balancer" style="ellipse;whiteSpace=wrap;html=1;aspect=fixed;fontSize=12;" parent="2tDmGTxHB2ePJQkc9rIG-1" vertex="1">
                    <mxGeometry x="240" y="440" width="80" height="80" as="geometry"/>
                </mxCell>
                <mxCell id="2tDmGTxHB2ePJQkc9rIG-3" value="HAProxy&lt;br&gt;192.168.0.160" style="text;html=1;strokeColor=none;fillColor=none;align=center;verticalAlign=middle;whiteSpace=wrap;rounded=0;fontSize=12;" parent="2tDmGTxHB2ePJQkc9rIG-1" vertex="1">
                    <mxGeometry x="260" y="530" width="40" height="20" as="geometry"/>
                </mxCell>
                <mxCell id="2tDmGTxHB2ePJQkc9rIG-4" value="node1&lt;br&gt;10.0.50.186" style="rounded=0;whiteSpace=wrap;html=1;fontSize=12;" parent="2tDmGTxHB2ePJQkc9rIG-1" vertex="1">
                    <mxGeometry x="440" y="320" width="120" height="80" as="geometry"/>
                </mxCell>
                <mxCell id="2tDmGTxHB2ePJQkc9rIG-5" value="node2&lt;br&gt;10.0.50.119" style="rounded=0;whiteSpace=wrap;html=1;fontSize=12;" parent="2tDmGTxHB2ePJQkc9rIG-1" vertex="1">
                    <mxGeometry x="440" y="440" width="120" height="80" as="geometry"/>
                </mxCell>
                <mxCell id="2tDmGTxHB2ePJQkc9rIG-6" value="node3&lt;br&gt;10.0.50.237" style="rounded=0;whiteSpace=wrap;html=1;fontSize=12;" parent="2tDmGTxHB2ePJQkc9rIG-1" vertex="1">
                    <mxGeometry x="440" y="560" width="120" height="80" as="geometry"/>
                </mxCell>
                <mxCell id="2tDmGTxHB2ePJQkc9rIG-11" style="edgeStyle=orthogonalEdgeStyle;rounded=0;orthogonalLoop=1;jettySize=auto;html=1;entryX=0;entryY=0.5;entryDx=0;entryDy=0;fontSize=12;" parent="2tDmGTxHB2ePJQkc9rIG-1" source="2tDmGTxHB2ePJQkc9rIG-10" target="2tDmGTxHB2ePJQkc9rIG-2" edge="1">
                    <mxGeometry relative="1" as="geometry"/>
                </mxCell>
                <mxCell id="2tDmGTxHB2ePJQkc9rIG-10" value="curl" style="shape=umlActor;verticalLabelPosition=bottom;verticalAlign=top;html=1;outlineConnect=0;fontSize=12;" parent="2tDmGTxHB2ePJQkc9rIG-1" vertex="1">
                    <mxGeometry x="70" y="450" width="30" height="60" as="geometry"/>
                </mxCell>
            </root>
        </mxGraphModel>
    </diagram>
    <diagram id="QxsJ4GF2id9lCXhhdJsZ" name="Page-3">
        <mxGraphModel dx="1212" dy="1015" grid="1" gridSize="10" guides="1" tooltips="1" connect="1" arrows="1" fold="1" page="1" pageScale="1" pageWidth="850" pageHeight="1100" math="0" shadow="0">
            <root>
                <mxCell id="1DUfJHQwkWzFin_vVgq7-0"/>
                <mxCell id="1DUfJHQwkWzFin_vVgq7-1" parent="1DUfJHQwkWzFin_vVgq7-0"/>
                <mxCell id="QjYPRVfXjcj026thdN7y-3" value="" style="rounded=1;whiteSpace=wrap;html=1;fontSize=12;fillColor=#dae8fc;strokeColor=#6c8ebf;" parent="1DUfJHQwkWzFin_vVgq7-1" vertex="1">
                    <mxGeometry x="1416.75" y="660" width="183.25" height="420" as="geometry"/>
                </mxCell>
                <mxCell id="1DUfJHQwkWzFin_vVgq7-2" value="http://192.168.0.160:8000/dev/conversions/v1/convert/c-to-f/15" style="text;html=1;strokeColor=none;fillColor=none;align=center;verticalAlign=middle;whiteSpace=wrap;rounded=0;fontSize=24;" parent="1DUfJHQwkWzFin_vVgq7-1" vertex="1">
                    <mxGeometry x="870" y="590" width="710" height="20" as="geometry"/>
                </mxCell>
                <mxCell id="1DUfJHQwkWzFin_vVgq7-3" value="" style="shape=curlyBracket;whiteSpace=wrap;html=1;rounded=1;flipH=1;fontSize=24;rotation=-90;" parent="1DUfJHQwkWzFin_vVgq7-1" vertex="1">
                    <mxGeometry x="1056.83" y="458.16" width="20" height="197.29" as="geometry"/>
                </mxCell>
                <mxCell id="1DUfJHQwkWzFin_vVgq7-4" value="" style="shape=curlyBracket;whiteSpace=wrap;html=1;rounded=1;flipH=1;fontSize=24;rotation=-90;" parent="1DUfJHQwkWzFin_vVgq7-1" vertex="1">
                    <mxGeometry x="1292.32" y="474.43" width="20" height="164.73" as="geometry"/>
                </mxCell>
                <mxCell id="1DUfJHQwkWzFin_vVgq7-5" value="" style="shape=curlyBracket;whiteSpace=wrap;html=1;rounded=1;flipH=1;fontSize=24;rotation=-90;" parent="1DUfJHQwkWzFin_vVgq7-1" vertex="1">
                    <mxGeometry x="1482.04" y="456.84" width="20" height="199.93" as="geometry"/>
                </mxCell>
                <mxCell id="1DUfJHQwkWzFin_vVgq7-6" value="API Gateway Host" style="text;html=1;strokeColor=none;fillColor=none;align=center;verticalAlign=middle;whiteSpace=wrap;rounded=0;fontSize=12;rotation=-45;" parent="1DUfJHQwkWzFin_vVgq7-1" vertex="1">
                    <mxGeometry x="1050" y="486.79999999999995" width="110" height="20" as="geometry"/>
                </mxCell>
                <mxCell id="1DUfJHQwkWzFin_vVgq7-7" value="Controller Base Path" style="text;html=1;strokeColor=none;fillColor=none;align=center;verticalAlign=middle;whiteSpace=wrap;rounded=0;fontSize=12;rotation=-45;" parent="1DUfJHQwkWzFin_vVgq7-1" vertex="1">
                    <mxGeometry x="1280" y="474.43" width="120" height="20" as="geometry"/>
                </mxCell>
                <mxCell id="1DUfJHQwkWzFin_vVgq7-8" value="Controller Method Path" style="text;html=1;strokeColor=none;fillColor=none;align=center;verticalAlign=middle;whiteSpace=wrap;rounded=0;fontSize=12;rotation=-45;" parent="1DUfJHQwkWzFin_vVgq7-1" vertex="1">
                    <mxGeometry x="1460" y="473.67999999999995" width="140" height="20" as="geometry"/>
                </mxCell>
                <mxCell id="1DUfJHQwkWzFin_vVgq7-9" value="" style="shape=curlyBracket;whiteSpace=wrap;html=1;rounded=1;flipH=1;fontSize=24;rotation=-90;" parent="1DUfJHQwkWzFin_vVgq7-1" vertex="1">
                    <mxGeometry x="1180.84" y="535.86" width="20" height="41.86" as="geometry"/>
                </mxCell>
                <mxCell id="1DUfJHQwkWzFin_vVgq7-10" value="API Gateway Defined Service Path" style="text;html=1;strokeColor=none;fillColor=none;align=center;verticalAlign=middle;whiteSpace=wrap;rounded=0;fontSize=12;rotation=-45;" parent="1DUfJHQwkWzFin_vVgq7-1" vertex="1">
                    <mxGeometry x="1152.28" y="453.68" width="200" height="20" as="geometry"/>
                </mxCell>
                <mxCell id="353yuL4vNaUMHFM5LCd0-9" style="edgeStyle=orthogonalEdgeStyle;rounded=0;orthogonalLoop=1;jettySize=auto;html=1;entryX=0;entryY=0.5;entryDx=0;entryDy=0;fontSize=12;" parent="1DUfJHQwkWzFin_vVgq7-1" source="1DUfJHQwkWzFin_vVgq7-12" target="353yuL4vNaUMHFM5LCd0-3" edge="1">
                    <mxGeometry relative="1" as="geometry"/>
                </mxCell>
                <mxCell id="1DUfJHQwkWzFin_vVgq7-12" value="API&lt;br&gt;Gateway" style="ellipse;whiteSpace=wrap;html=1;aspect=fixed;fontSize=12;" parent="1DUfJHQwkWzFin_vVgq7-1" vertex="1">
                    <mxGeometry x="1092.2800000000002" y="810.07" width="80" height="80" as="geometry"/>
                </mxCell>
                <mxCell id="353yuL4vNaUMHFM5LCd0-0" style="edgeStyle=orthogonalEdgeStyle;rounded=0;orthogonalLoop=1;jettySize=auto;html=1;entryX=0;entryY=0.5;entryDx=0;entryDy=0;fontSize=12;" parent="1DUfJHQwkWzFin_vVgq7-1" source="353yuL4vNaUMHFM5LCd0-3" target="353yuL4vNaUMHFM5LCd0-6" edge="1">
                    <mxGeometry relative="1" as="geometry"/>
                </mxCell>
                <mxCell id="353yuL4vNaUMHFM5LCd0-1" style="edgeStyle=orthogonalEdgeStyle;rounded=0;orthogonalLoop=1;jettySize=auto;html=1;entryX=0;entryY=0.5;entryDx=0;entryDy=0;fontSize=12;" parent="1DUfJHQwkWzFin_vVgq7-1" source="353yuL4vNaUMHFM5LCd0-3" target="353yuL4vNaUMHFM5LCd0-5" edge="1">
                    <mxGeometry relative="1" as="geometry"/>
                </mxCell>
                <mxCell id="353yuL4vNaUMHFM5LCd0-2" style="edgeStyle=orthogonalEdgeStyle;rounded=0;orthogonalLoop=1;jettySize=auto;html=1;entryX=0;entryY=0.5;entryDx=0;entryDy=0;fontSize=12;" parent="1DUfJHQwkWzFin_vVgq7-1" source="353yuL4vNaUMHFM5LCd0-3" target="353yuL4vNaUMHFM5LCd0-7" edge="1">
                    <mxGeometry relative="1" as="geometry"/>
                </mxCell>
                <mxCell id="353yuL4vNaUMHFM5LCd0-3" value="Load&lt;br&gt;Balancer" style="ellipse;whiteSpace=wrap;html=1;aspect=fixed;fontSize=12;" parent="1DUfJHQwkWzFin_vVgq7-1" vertex="1">
                    <mxGeometry x="1250" y="810.0000000000001" width="80" height="80" as="geometry"/>
                </mxCell>
                <mxCell id="353yuL4vNaUMHFM5LCd0-4" value="HAProxy&lt;br&gt;192.168.0.160&lt;br&gt;Port 80" style="text;html=1;strokeColor=none;fillColor=none;align=center;verticalAlign=middle;whiteSpace=wrap;rounded=0;fontSize=12;" parent="1DUfJHQwkWzFin_vVgq7-1" vertex="1">
                    <mxGeometry x="1268.56" y="910.0000000000001" width="40" height="20" as="geometry"/>
                </mxCell>
                <mxCell id="353yuL4vNaUMHFM5LCd0-5" value="node1&lt;br&gt;10.0.50.186" style="rounded=0;whiteSpace=wrap;html=1;fontSize=12;" parent="1DUfJHQwkWzFin_vVgq7-1" vertex="1">
                    <mxGeometry x="1450" y="690.0000000000001" width="120" height="80" as="geometry"/>
                </mxCell>
                <mxCell id="353yuL4vNaUMHFM5LCd0-6" value="node2&lt;br&gt;10.0.50.119" style="rounded=0;whiteSpace=wrap;html=1;fontSize=12;" parent="1DUfJHQwkWzFin_vVgq7-1" vertex="1">
                    <mxGeometry x="1450" y="810.0000000000001" width="120" height="80" as="geometry"/>
                </mxCell>
                <mxCell id="353yuL4vNaUMHFM5LCd0-7" value="node3&lt;br&gt;10.0.50.237" style="rounded=0;whiteSpace=wrap;html=1;fontSize=12;" parent="1DUfJHQwkWzFin_vVgq7-1" vertex="1">
                    <mxGeometry x="1450" y="930.0000000000001" width="120" height="80" as="geometry"/>
                </mxCell>
                <mxCell id="353yuL4vNaUMHFM5LCd0-8" value="Kong&lt;br&gt;192.168.0.160&lt;br&gt;Port 8000" style="text;html=1;strokeColor=none;fillColor=none;align=center;verticalAlign=middle;whiteSpace=wrap;rounded=0;fontSize=12;" parent="1DUfJHQwkWzFin_vVgq7-1" vertex="1">
                    <mxGeometry x="1112.28" y="910.0000000000001" width="40" height="20" as="geometry"/>
                </mxCell>
                <mxCell id="QjYPRVfXjcj026thdN7y-1" style="edgeStyle=orthogonalEdgeStyle;rounded=0;orthogonalLoop=1;jettySize=auto;html=1;entryX=0;entryY=0.5;entryDx=0;entryDy=0;fontSize=12;" parent="1DUfJHQwkWzFin_vVgq7-1" source="QjYPRVfXjcj026thdN7y-0" target="1DUfJHQwkWzFin_vVgq7-12" edge="1">
                    <mxGeometry relative="1" as="geometry"/>
                </mxCell>
                <mxCell id="QjYPRVfXjcj026thdN7y-0" value="curl" style="shape=umlActor;verticalLabelPosition=bottom;verticalAlign=top;html=1;outlineConnect=0;fontSize=12;" parent="1DUfJHQwkWzFin_vVgq7-1" vertex="1">
                    <mxGeometry x="960" y="820.0000000000001" width="30" height="60" as="geometry"/>
                </mxCell>
                <mxCell id="QjYPRVfXjcj026thdN7y-5" value="Development Kubernetes Cluster" style="text;html=1;strokeColor=none;fillColor=none;align=center;verticalAlign=middle;whiteSpace=wrap;rounded=0;fontSize=12;" parent="1DUfJHQwkWzFin_vVgq7-1" vertex="1">
                    <mxGeometry x="1490" y="1040" width="40" height="20" as="geometry"/>
                </mxCell>
            </root>
        </mxGraphModel>
    </diagram>
    <diagram id="THgC1a29CV66qNLsCbCS" name="Page-4">
        <mxGraphModel dx="572" dy="700" grid="1" gridSize="10" guides="1" tooltips="1" connect="1" arrows="1" fold="1" page="1" pageScale="1" pageWidth="850" pageHeight="1100" math="0" shadow="0">
            <root>
                <mxCell id="AF3nj9seq7OvqP87OFRa-0"/>
                <mxCell id="AF3nj9seq7OvqP87OFRa-1" parent="AF3nj9seq7OvqP87OFRa-0"/>
                <mxCell id="AF3nj9seq7OvqP87OFRa-2" value="" style="rounded=1;whiteSpace=wrap;html=1;fontSize=12;fillColor=#dae8fc;strokeColor=#6c8ebf;" parent="AF3nj9seq7OvqP87OFRa-1" vertex="1">
                    <mxGeometry x="1416.75" y="790" width="193.25" height="190" as="geometry"/>
                </mxCell>
                <mxCell id="AF3nj9seq7OvqP87OFRa-19" value="Nodes" style="rounded=0;whiteSpace=wrap;html=1;fontSize=12;" parent="AF3nj9seq7OvqP87OFRa-1" vertex="1">
                    <mxGeometry x="1470" y="830.0000000000001" width="120" height="80" as="geometry"/>
                </mxCell>
                <mxCell id="AF3nj9seq7OvqP87OFRa-18" value="Nodes" style="rounded=0;whiteSpace=wrap;html=1;fontSize=12;" parent="AF3nj9seq7OvqP87OFRa-1" vertex="1">
                    <mxGeometry x="1460" y="820.0000000000001" width="120" height="80" as="geometry"/>
                </mxCell>
                <mxCell id="AF3nj9seq7OvqP87OFRa-3" style="edgeStyle=orthogonalEdgeStyle;rounded=0;orthogonalLoop=1;jettySize=auto;html=1;entryX=0;entryY=0.5;entryDx=0;entryDy=0;fontSize=12;" parent="AF3nj9seq7OvqP87OFRa-1" source="AF3nj9seq7OvqP87OFRa-4" target="AF3nj9seq7OvqP87OFRa-8" edge="1">
                    <mxGeometry relative="1" as="geometry"/>
                </mxCell>
                <mxCell id="AF3nj9seq7OvqP87OFRa-36" style="edgeStyle=orthogonalEdgeStyle;rounded=0;orthogonalLoop=1;jettySize=auto;html=1;entryX=0;entryY=0.5;entryDx=0;entryDy=0;fontSize=12;" parent="AF3nj9seq7OvqP87OFRa-1" source="AF3nj9seq7OvqP87OFRa-4" target="AF3nj9seq7OvqP87OFRa-24" edge="1">
                    <mxGeometry relative="1" as="geometry"/>
                </mxCell>
                <mxCell id="AF3nj9seq7OvqP87OFRa-37" style="edgeStyle=orthogonalEdgeStyle;rounded=0;orthogonalLoop=1;jettySize=auto;html=1;entryX=0;entryY=0.5;entryDx=0;entryDy=0;fontSize=12;" parent="AF3nj9seq7OvqP87OFRa-1" source="AF3nj9seq7OvqP87OFRa-4" target="AF3nj9seq7OvqP87OFRa-32" edge="1">
                    <mxGeometry relative="1" as="geometry"/>
                </mxCell>
                <mxCell id="AF3nj9seq7OvqP87OFRa-4" value="API&lt;br&gt;Gateway" style="ellipse;whiteSpace=wrap;html=1;aspect=fixed;fontSize=12;" parent="AF3nj9seq7OvqP87OFRa-1" vertex="1">
                    <mxGeometry x="1092.2800000000002" y="810.07" width="80" height="80" as="geometry"/>
                </mxCell>
                <mxCell id="AF3nj9seq7OvqP87OFRa-5" style="edgeStyle=orthogonalEdgeStyle;rounded=0;orthogonalLoop=1;jettySize=auto;html=1;entryX=0;entryY=0.5;entryDx=0;entryDy=0;fontSize=12;" parent="AF3nj9seq7OvqP87OFRa-1" source="AF3nj9seq7OvqP87OFRa-8" target="AF3nj9seq7OvqP87OFRa-11" edge="1">
                    <mxGeometry relative="1" as="geometry"/>
                </mxCell>
                <mxCell id="AF3nj9seq7OvqP87OFRa-8" value="Test&lt;br&gt;Cluster&lt;br&gt;Load&lt;br&gt;Balancer" style="ellipse;whiteSpace=wrap;html=1;aspect=fixed;fontSize=12;" parent="AF3nj9seq7OvqP87OFRa-1" vertex="1">
                    <mxGeometry x="1250" y="810.0000000000001" width="80" height="80" as="geometry"/>
                </mxCell>
                <mxCell id="AF3nj9seq7OvqP87OFRa-11" value="Nodes" style="rounded=0;whiteSpace=wrap;html=1;fontSize=12;" parent="AF3nj9seq7OvqP87OFRa-1" vertex="1">
                    <mxGeometry x="1450" y="810.0000000000001" width="120" height="80" as="geometry"/>
                </mxCell>
                <mxCell id="AF3nj9seq7OvqP87OFRa-14" style="edgeStyle=orthogonalEdgeStyle;rounded=0;orthogonalLoop=1;jettySize=auto;html=1;entryX=0;entryY=0.5;entryDx=0;entryDy=0;fontSize=12;" parent="AF3nj9seq7OvqP87OFRa-1" source="AF3nj9seq7OvqP87OFRa-15" target="AF3nj9seq7OvqP87OFRa-4" edge="1">
                    <mxGeometry relative="1" as="geometry"/>
                </mxCell>
                <mxCell id="AF3nj9seq7OvqP87OFRa-15" value="Consumers" style="shape=umlActor;verticalLabelPosition=bottom;verticalAlign=top;html=1;outlineConnect=0;fontSize=12;" parent="AF3nj9seq7OvqP87OFRa-1" vertex="1">
                    <mxGeometry x="960" y="820.0000000000001" width="30" height="60" as="geometry"/>
                </mxCell>
                <mxCell id="AF3nj9seq7OvqP87OFRa-16" value="Test&lt;br&gt;Kubernetes Cluster" style="text;html=1;strokeColor=none;fillColor=none;align=center;verticalAlign=middle;whiteSpace=wrap;rounded=0;fontSize=12;" parent="AF3nj9seq7OvqP87OFRa-1" vertex="1">
                    <mxGeometry x="1490" y="940" width="40" height="20" as="geometry"/>
                </mxCell>
                <mxCell id="AF3nj9seq7OvqP87OFRa-17" value="Nodes" style="rounded=0;whiteSpace=wrap;html=1;fontSize=12;" parent="AF3nj9seq7OvqP87OFRa-1" vertex="1">
                    <mxGeometry x="1450" y="810.0000000000001" width="120" height="80" as="geometry"/>
                </mxCell>
                <mxCell id="AF3nj9seq7OvqP87OFRa-20" value="" style="rounded=1;whiteSpace=wrap;html=1;fontSize=12;fillColor=#dae8fc;strokeColor=#6c8ebf;" parent="AF3nj9seq7OvqP87OFRa-1" vertex="1">
                    <mxGeometry x="1416.75" y="1040" width="193.25" height="190" as="geometry"/>
                </mxCell>
                <mxCell id="AF3nj9seq7OvqP87OFRa-21" value="Nodes" style="rounded=0;whiteSpace=wrap;html=1;fontSize=12;" parent="AF3nj9seq7OvqP87OFRa-1" vertex="1">
                    <mxGeometry x="1470" y="1080" width="120" height="80" as="geometry"/>
                </mxCell>
                <mxCell id="AF3nj9seq7OvqP87OFRa-22" value="Nodes" style="rounded=0;whiteSpace=wrap;html=1;fontSize=12;" parent="AF3nj9seq7OvqP87OFRa-1" vertex="1">
                    <mxGeometry x="1460" y="1070" width="120" height="80" as="geometry"/>
                </mxCell>
                <mxCell id="AF3nj9seq7OvqP87OFRa-23" style="edgeStyle=orthogonalEdgeStyle;rounded=0;orthogonalLoop=1;jettySize=auto;html=1;entryX=0;entryY=0.5;entryDx=0;entryDy=0;fontSize=12;" parent="AF3nj9seq7OvqP87OFRa-1" source="AF3nj9seq7OvqP87OFRa-24" target="AF3nj9seq7OvqP87OFRa-25" edge="1">
                    <mxGeometry relative="1" as="geometry"/>
                </mxCell>
                <mxCell id="AF3nj9seq7OvqP87OFRa-24" value="Prod&lt;br&gt;Cluster&lt;br&gt;Load&lt;br&gt;Balancer" style="ellipse;whiteSpace=wrap;html=1;aspect=fixed;fontSize=12;" parent="AF3nj9seq7OvqP87OFRa-1" vertex="1">
                    <mxGeometry x="1250" y="1060" width="80" height="80" as="geometry"/>
                </mxCell>
                <mxCell id="AF3nj9seq7OvqP87OFRa-25" value="Nodes" style="rounded=0;whiteSpace=wrap;html=1;fontSize=12;" parent="AF3nj9seq7OvqP87OFRa-1" vertex="1">
                    <mxGeometry x="1450" y="1060" width="120" height="80" as="geometry"/>
                </mxCell>
                <mxCell id="AF3nj9seq7OvqP87OFRa-26" value="Production&lt;br&gt;Kubernetes Cluster" style="text;html=1;strokeColor=none;fillColor=none;align=center;verticalAlign=middle;whiteSpace=wrap;rounded=0;fontSize=12;" parent="AF3nj9seq7OvqP87OFRa-1" vertex="1">
                    <mxGeometry x="1490" y="1190" width="40" height="20" as="geometry"/>
                </mxCell>
                <mxCell id="AF3nj9seq7OvqP87OFRa-27" value="Nodes" style="rounded=0;whiteSpace=wrap;html=1;fontSize=12;" parent="AF3nj9seq7OvqP87OFRa-1" vertex="1">
                    <mxGeometry x="1450" y="1060" width="120" height="80" as="geometry"/>
                </mxCell>
                <mxCell id="AF3nj9seq7OvqP87OFRa-28" value="" style="rounded=1;whiteSpace=wrap;html=1;fontSize=12;fillColor=#dae8fc;strokeColor=#6c8ebf;" parent="AF3nj9seq7OvqP87OFRa-1" vertex="1">
                    <mxGeometry x="1416.75" y="550" width="193.25" height="190" as="geometry"/>
                </mxCell>
                <mxCell id="AF3nj9seq7OvqP87OFRa-29" value="Nodes" style="rounded=0;whiteSpace=wrap;html=1;fontSize=12;" parent="AF3nj9seq7OvqP87OFRa-1" vertex="1">
                    <mxGeometry x="1470" y="590.0000000000001" width="120" height="80" as="geometry"/>
                </mxCell>
                <mxCell id="AF3nj9seq7OvqP87OFRa-30" value="Nodes" style="rounded=0;whiteSpace=wrap;html=1;fontSize=12;" parent="AF3nj9seq7OvqP87OFRa-1" vertex="1">
                    <mxGeometry x="1460" y="580.0000000000001" width="120" height="80" as="geometry"/>
                </mxCell>
                <mxCell id="AF3nj9seq7OvqP87OFRa-31" style="edgeStyle=orthogonalEdgeStyle;rounded=0;orthogonalLoop=1;jettySize=auto;html=1;entryX=0;entryY=0.5;entryDx=0;entryDy=0;fontSize=12;" parent="AF3nj9seq7OvqP87OFRa-1" source="AF3nj9seq7OvqP87OFRa-32" target="AF3nj9seq7OvqP87OFRa-33" edge="1">
                    <mxGeometry relative="1" as="geometry"/>
                </mxCell>
                <mxCell id="AF3nj9seq7OvqP87OFRa-32" value="Dev&lt;br&gt;Cluster&lt;br&gt;Load&lt;br&gt;Balancer" style="ellipse;whiteSpace=wrap;html=1;aspect=fixed;fontSize=12;" parent="AF3nj9seq7OvqP87OFRa-1" vertex="1">
                    <mxGeometry x="1250" y="570.0000000000001" width="80" height="80" as="geometry"/>
                </mxCell>
                <mxCell id="AF3nj9seq7OvqP87OFRa-33" value="Nodes" style="rounded=0;whiteSpace=wrap;html=1;fontSize=12;" parent="AF3nj9seq7OvqP87OFRa-1" vertex="1">
                    <mxGeometry x="1450" y="570.0000000000001" width="120" height="80" as="geometry"/>
                </mxCell>
                <mxCell id="AF3nj9seq7OvqP87OFRa-34" value="Development Kubernetes Cluster" style="text;html=1;strokeColor=none;fillColor=none;align=center;verticalAlign=middle;whiteSpace=wrap;rounded=0;fontSize=12;" parent="AF3nj9seq7OvqP87OFRa-1" vertex="1">
                    <mxGeometry x="1490" y="700" width="40" height="20" as="geometry"/>
                </mxCell>
                <mxCell id="AF3nj9seq7OvqP87OFRa-35" value="Nodes" style="rounded=0;whiteSpace=wrap;html=1;fontSize=12;" parent="AF3nj9seq7OvqP87OFRa-1" vertex="1">
                    <mxGeometry x="1450" y="570.0000000000001" width="120" height="80" as="geometry"/>
                </mxCell>
                <mxCell id="giqlAENA9jWxMYv8Futa-0" value="/live/conversions/v1/convert/......" style="text;html=1;strokeColor=none;fillColor=none;align=left;verticalAlign=middle;whiteSpace=wrap;rounded=0;fontSize=12;" parent="AF3nj9seq7OvqP87OFRa-1" vertex="1">
                    <mxGeometry x="1630" y="1090" width="230" height="20" as="geometry"/>
                </mxCell>
                <mxCell id="giqlAENA9jWxMYv8Futa-3" value="/dev/conversions/v2/convert/......&amp;nbsp; Patch version 2" style="text;html=1;strokeColor=none;fillColor=none;align=left;verticalAlign=middle;whiteSpace=wrap;rounded=0;fontSize=12;" parent="AF3nj9seq7OvqP87OFRa-1" vertex="1">
                    <mxGeometry x="1630" y="590" width="290" height="20" as="geometry"/>
                </mxCell>
                <mxCell id="giqlAENA9jWxMYv8Futa-4" value="&lt;i&gt;&lt;b&gt;Path Composition&lt;/b&gt;&lt;/i&gt;: &amp;lt;environment&amp;gt;/&amp;lt;service-name-and-version&amp;gt;/&amp;lt;service-method&amp;gt;/...." style="text;html=1;strokeColor=none;fillColor=none;align=center;verticalAlign=middle;whiteSpace=wrap;rounded=0;fontSize=12;" parent="AF3nj9seq7OvqP87OFRa-1" vertex="1">
                    <mxGeometry x="1180" y="1270" width="600" height="20" as="geometry"/>
                </mxCell>
                <mxCell id="giqlAENA9jWxMYv8Futa-6" value="/test/conversions/v2/convert/......&amp;nbsp; Patch version 1" style="text;html=1;strokeColor=none;fillColor=none;align=left;verticalAlign=middle;whiteSpace=wrap;rounded=0;fontSize=12;" parent="AF3nj9seq7OvqP87OFRa-1" vertex="1">
                    <mxGeometry x="1630" y="840.07" width="290" height="20" as="geometry"/>
                </mxCell>
                <mxCell id="giqlAENA9jWxMYv8Futa-7" value="/live/conversions/v2/convert/......&amp;nbsp; Initial version" style="text;html=1;strokeColor=none;fillColor=none;align=left;verticalAlign=middle;whiteSpace=wrap;rounded=0;fontSize=12;" parent="AF3nj9seq7OvqP87OFRa-1" vertex="1">
                    <mxGeometry x="1630" y="1120" width="290" height="20" as="geometry"/>
                </mxCell>
                <mxCell id="giqlAENA9jWxMYv8Futa-8" value="/dev/conversions/v3/convert/......&amp;nbsp; Patch version 1" style="text;html=1;strokeColor=none;fillColor=none;align=left;verticalAlign=middle;whiteSpace=wrap;rounded=0;fontSize=12;" parent="AF3nj9seq7OvqP87OFRa-1" vertex="1">
                    <mxGeometry x="1630" y="620" width="290" height="20" as="geometry"/>
                </mxCell>
                <mxCell id="giqlAENA9jWxMYv8Futa-9" value="/dev/conversions/v4/convert/......&amp;nbsp; New version being developed" style="text;html=1;strokeColor=none;fillColor=none;align=left;verticalAlign=middle;whiteSpace=wrap;rounded=0;fontSize=12;" parent="AF3nj9seq7OvqP87OFRa-1" vertex="1">
                    <mxGeometry x="1630" y="650" width="370" height="20" as="geometry"/>
                </mxCell>
                <mxCell id="giqlAENA9jWxMYv8Futa-10" value="/test/conversions/v3/convert/......&amp;nbsp; Initial version" style="text;html=1;strokeColor=none;fillColor=none;align=left;verticalAlign=middle;whiteSpace=wrap;rounded=0;fontSize=12;" parent="AF3nj9seq7OvqP87OFRa-1" vertex="1">
                    <mxGeometry x="1630" y="870" width="290" height="20" as="geometry"/>
                </mxCell>
            </root>
        </mxGraphModel>
    </diagram>
</mxfile>